<svg xmlns="http://www.w3.org/2000/svg" viewBox="0 0 100 100" width="100" height="100">
  <defs>
    <linearGradient id="icBg" x1="0%" y1="0%" x2="100%" y2="100%">
      <stop offset="0%" stop-color="#0066FF"/>
      <stop offset="50%" stop-color="#0A84FF"/>
      <stop offset="100%" stop-color="#00D2FF"/>
    </linearGradient>
    <linearGradient id="icInner" x1="0%" y1="100%" x2="100%" y2="0%">
      <stop offset="0%" stop-color="#FFFFFF" stop-opacity="0.95"/>
      <stop offset="100%" stop-color="#DDF4FF" stop-opacity="0.85"/>
    </linearGradient>
    <filter id="icGlow" x="-20%" y="-20%" width="140%" height="140%">
      <feGaussianBlur stdDeviation="3" result="blur" />
      <feComposite in="SourceGraphic" in2="blur" operator="over" />
    </filter>
  </defs>
  <rect x="6" y="6" width="88" height="88" rx="26" fill="url(#icBg)" filter="url(#icGlow)"/>
  <rect x="8" y="8" width="84" height="84" rx="24" fill="none" stroke="rgba(255,255,255,0.3)" stroke-width="2"/>
  <path d="M 28 32 C 28 26.5 32.5 22 38 22 L 62 22 C 67.5 22 72 26.5 72 32 L 72 52 C 72 57.5 67.5 62 62 62 L 44 62 L 32 72 L 34 62 C 30.5 60.5 28 56.5 28 52 Z" 
        fill="url(#icInner)" />
  <path d="M 52 28 L 40 46 L 49 46 L 46 60 L 60 41 L 51 41 Z" 
        fill="url(#icBg)"/>
  <circle cx="70" cy="24" r="5" fill="#10B981" stroke="#FFFFFF" stroke-width="2" />
</svg>
